<?xml version="1.0" encoding="UTF-8"?>
<svg width="319px" height="60px" viewBox="0 0 319 60" version="1.1" xmlns="http://www.w3.org/2000/svg" xmlns:xlink="http://www.w3.org/1999/xlink">
    <!-- Generator: Sketch 55.1 (78136) - https://sketchapp.com -->
    <title>Snowplow_Brand_Logo_Full_H_RGB_K__1_</title>
    <desc>Created with Sketch.</desc>
    <g id="Hackathon" stroke="none" stroke-width="1" fill="none" fill-rule="evenodd">
        <g id="Snowplow-JS-Demo-Pipeline-data" transform="translate(-385.000000, -25.000000)" fill="#FFFFFF" fill-rule="nonzero">
            <g id="Menu---Header" transform="translate(385.000000, 22.000000)">
                <g id="Snowplow_Brand_Logo_Full_H_RGB_K__1_" transform="translate(0.000000, 3.000000)">
                    <path d="M144.095355,8 C138.165211,8 133.061474,11.96274 131.553964,17.3026655 C131.254279,18.3688736 131,19.4528518 131,20.6167956 L131,26.3920894 C131,27.529378 131.245197,28.577816 131.52672,29.6262539 C133.016067,35.0106048 138.083479,39 144.049948,39 C150.016416,39 155.065665,35.0106048 156.545931,29.6262539 C156.845616,28.5689309 157,27.4849527 157,26.3920894 C157,25.3969619 157,21.6119232 157,20.6167956 C157,19.4972772 156.845616,18.3777587 156.536849,17.3026655 C155.038421,11.9716251 150.034579,8 144.095355,8 Z M149.008383,26.4009745 C149.008383,27.520493 148.590639,28.6044712 147.836884,29.4485526 C146.928746,30.4881055 145.584701,31.1811407 144.095355,31.1811407 C142.615089,31.1633706 141.207475,30.5325308 140.226685,29.4485526 C139.500175,28.6133563 138.94621,27.5826884 138.94621,26.4009745 L138.94621,20.8833477 C138.94621,19.5594726 139.618233,18.3688736 140.508208,17.498137 C141.452672,16.6007452 142.724066,16.0942964 144.040866,16.0942964 C145.330423,16.1120665 146.565491,16.6096303 147.491792,17.498137 C148.409012,18.3688736 148.99022,19.5417025 148.99022,20.8833477 C148.99022,21.9051304 149.008383,25.3703067 149.008383,26.4009745 L149.008383,26.4009745 Z" id="Shape"></path>
                    <path d="M265.077246,8 C259.133869,8 254.04474,11.96274 252.536176,17.3026655 C252.236281,18.3688736 252,19.4528518 252,20.6167956 L252,26.3920894 C252,27.529378 252.227193,28.577816 252.518001,29.6262539 C254.008389,35.0106048 259.088431,39 265.049983,39 C271.011534,39 276.073401,35.0106048 277.554701,29.6262539 C277.854596,28.5689309 278,27.4849527 278,26.3920894 C278,25.3969619 278,21.6119232 278,20.6167956 C278,19.4972772 277.845509,18.3777587 277.536526,17.3026655 C276.027962,11.9716251 271.020622,8 265.077246,8 Z M269.993708,26.4009745 C269.993708,27.520493 269.575673,28.6044712 268.821391,29.4485526 C267.912618,30.4881055 266.567634,31.1811407 265.077246,31.1811407 C263.595945,31.1633706 262.187347,30.5325308 261.21496,29.4485526 C260.487941,28.6133563 259.942677,27.5826884 259.942677,26.4009745 L259.942677,20.8833477 C259.942677,19.5594726 260.596994,18.3688736 261.496679,17.498137 C262.441804,16.6007452 263.714086,16.0942964 265.031807,16.0942964 C266.322265,16.1120665 267.558196,16.6096303 268.485145,17.498137 C269.403006,18.3688736 269.984621,19.5417025 269.984621,20.8833477 C269.975533,21.9051304 269.993708,25.3703067 269.993708,26.4009745 Z" id="Shape"></path>
                    <path d="M126.990879,8.00901984 L119.365925,8.00901984 L119.365925,21.9897775 L112.133163,9.51533373 C112.133163,9.51533373 111.221087,8 109.606713,8 L102,8 L102,38 L106.697191,38 C108.220358,38 109.542868,36.8274203 109.542868,34.9873722 L109.542868,21.1960313 L119.411529,38 L124.145202,38 C125.650128,38 127,36.8544799 127,35.0505111 L126.990879,8.00901984 Z" id="Path"></path>
                    <path d="M237.855409,30.5383459 L237.855409,8 L230,8 L230,38 L245.074406,38 C247.012137,38 248,36.4120301 248,34.9052632 L248,30.5383459 L237.855409,30.5383459 L237.855409,30.5383459 Z" id="Path"></path>
                    <path d="M217.460873,8 L203,8 L203,38 L207.642986,38 C209.148576,38 210.455824,36.8270677 210.455824,34.9864662 L210.455824,29.2030075 L217.460873,29.2030075 C223.28489,29.2030075 228,24.4571429 228,18.6285714 C228,12.8 223.275875,8 217.460873,8 Z M217.469888,21.5789474 L210.446809,21.5789474 L210.446809,15.6240602 L217.433826,15.6240602 C219.065633,15.6240602 220.391005,16.9413534 220.391005,18.5744361 C220.391005,18.5834586 220.391005,18.5924812 220.391005,18.6015038 C220.399928,20.2255639 219.101695,21.5789474 217.469888,21.5789474 L217.469888,21.5789474 Z" id="Shape"></path>
                    <path d="M170.697695,38 C172.550384,38 173.336647,36.9085989 173.779485,35.7630788 C173.878897,35.5105232 175.993674,28.3848467 178.018075,21.5117258 L182.05784,35.0144317 L182.979666,38 L186.874831,38 C188.203344,38 189.152282,37.0980156 189.55897,36.1870114 C189.676457,35.9524955 189.77587,35.7179796 189.857207,35.4654239 C190.019883,34.9512928 198,8.00901984 198,8.00901984 L189.99277,8.00901984 L186.016268,21.6019242 C184.371441,16.135899 182.789878,10.8502706 182.609128,10.2369212 C182.211478,8.88394468 181.108902,8.00901984 179.897876,8.00901984 L173.987347,8.00901984 L170.02892,21.5207456 C168.375056,16.0817799 166.76638,10.8412508 166.594668,10.2188815 C166.160868,8.68550812 164.904654,8 163.675554,8 L158,8 L166.974243,37.9819603 L170.697695,38 Z" id="Path"></path>
                    <path d="M291.688658,38 C293.541347,38 294.32761,36.9082707 294.770447,35.762406 C294.86986,35.5097744 296.984636,28.3819549 299.009038,21.5067669 L303.048803,35.0135338 L303.979666,38 L307.874831,38 C309.203344,38 310.152282,37.0977444 310.55897,36.1864662 C310.676457,35.9518797 310.77587,35.7082707 310.857207,35.4646617 C311.019883,34.9503759 319,8 319,8 L310.99277,8 L307.016268,21.5969925 C305.371441,16.1293233 303.789878,10.8421053 303.609128,10.2285714 C303.211478,8.87518797 302.108902,8 300.897876,8 L294.987347,8 L291.02892,21.524812 C289.375056,16.0842105 287.76638,10.8421053 287.594668,10.2195489 C287.160868,8.68571429 285.904654,8 284.675554,8 L279,8 L287.974243,37.9909774 L291.688658,38 Z" id="Path"></path>
                    <path d="M96.6394151,24.9292669 C95.7777113,23.7485682 94.4987614,22.7720504 92.8479184,22.0174685 C91.4056983,21.3605384 89.5190206,20.7302405 87.0790382,20.0910653 C85.1923605,19.5761741 83.759211,19.1145475 82.8158721,18.7328179 C81.8725332,18.3510882 81.0924645,18.0936426 81.0924645,17.365693 C81.0924645,16.6732532 81.3373698,16.3802978 81.709263,16.1494845 C82.4076966,15.7233677 83.4689529,15.5014318 84.8476789,15.5014318 C86.0903465,15.5014318 87.0971794,15.7588774 87.8591069,16.2293814 C88.6210345,16.6998855 88.8296575,17.1437572 88.8296575,17.1437572 L97.1473668,17.1437572 L97.1473668,16.7087629 C97.0748022,15.2706186 96.5124271,13.8413517 95.4965237,12.4919817 C94.4987614,11.1781214 93.065612,10.0773196 91.2424282,9.24284078 C89.446456,8.4172394 87.2967318,8 84.8567495,8 C82.525614,8 80.4575249,8.3639748 78.697835,9.0919244 C76.838369,9.85538373 75.3780078,10.9384307 74.3711749,12.314433 C73.346201,13.6993127 72.7928964,15.3682703 72.8110375,17.0816151 C72.8110375,18.8659794 73.2373542,20.3928981 74.0809168,21.6357388 C74.9063383,22.8430699 76.1036531,23.8550974 77.6637905,24.6363116 C79.0515871,25.3376289 80.8203475,25.9679267 83.069848,26.5627148 C85.1651488,27.139748 86.7434273,27.6191294 87.7593307,28.0008591 C88.7389519,28.3648339 89.2106213,28.7110538 89.4373855,28.9329897 C89.5553028,29.0483963 89.6641496,29.2170676 89.6641496,29.6165521 C89.6641496,30.2646048 89.446456,30.6818442 88.9022221,31.0369416 C88.3942704,31.3742841 87.314873,31.8181558 85.0653725,31.8181558 C83.4417412,31.8181558 82.1990736,31.5518328 81.4552872,31.0635739 C80.8566298,30.6640893 80.4847366,30.2557274 80.3123958,29.838488 L72.0128277,29.838488 C72.0037572,29.90063 71.9946866,29.9716495 72.0037572,30.0337915 L72.0037572,30.0959336 C72.0763217,31.7293814 72.6749791,33.2563001 73.7906587,34.6411798 C74.8700561,35.9905498 76.4301935,37.0735968 78.4166475,37.8636884 C80.3214664,38.6182703 82.5528257,39 85.056302,39 C88.8115164,39 91.8864384,38.2010309 94.1994327,36.6386025 C96.6847679,34.95189 98,32.4839633 98,29.5100229 C97.9909294,27.6901489 97.5374011,26.1543528 96.6394151,24.9292669 Z" id="Path"></path>
                    <path d="M52.4480649,21.6752629 L41.4412019,2.31205878 C40.7068066,1.0211785 38.9750843,0.00691543005 37.4972271,0.00691543005 L29.2919462,0.00691543005 C29.2194133,-0.00230514335 29.1378138,-0.00230514335 29.065281,0.00691543005 L15.5016343,0.00691543005 C14.0237771,0.00691543005 12.2920548,1.0211785 11.5576595,2.30283821 L0.550796481,21.6752629 C-0.183598827,22.9753638 -0.183598827,25.0038899 0.550796481,26.3039908 L11.5576595,45.6856361 C12.2920548,46.9857369 14.0328437,48 15.5016343,48 L37.5062937,48 L37.5062937,48 C38.9841509,48 40.7158732,46.9857369 41.4502685,45.6856361 L52.4571315,26.3039908 C53.1824602,25.0038899 53.1824602,22.9753638 52.4480649,21.6752629 Z M40.0812106,3.10502809 L44.0977183,10.1772079 L37.0620299,22.4313499 L32.4561926,14.4094511 C32.3111269,14.1604956 32.0572619,14.0129664 31.776197,14.0129664 L22.6370554,14.0129664 L29.6364773,1.62033756 L37.5062937,1.62033756 C38.4220212,1.6112952 39.6278802,2.31205878 40.0812106,3.10502809 Z M26.9980942,23.251981 L22.6098555,15.6173462 L31.3228665,15.6173462 L35.7020386,23.251981 L26.9980942,23.251981 Z M25.5746366,24.0172886 L21.2407976,31.5689382 L16.8888254,23.9804063 L21.2226644,16.4287567 L25.5746366,24.0172886 Z M26.9527611,24.8563608 L35.6204391,24.8563608 L31.3137999,32.3619075 L22.6098555,32.3619075 L26.9527611,24.8563608 Z M12.9267174,3.10502809 C13.3800478,2.30283821 14.5859068,1.6112952 15.5016343,1.6112952 L27.814089,1.6112952 L20.8056004,14.0037459 L6.73422364,14.0037459 L12.9267174,3.10502809 Z M1.9198544,22.4866734 L5.81849616,15.6173462 L19.8536065,15.6173462 L15.2749691,23.5839216 C15.1299033,23.8328771 15.1299033,24.1463766 15.2749691,24.3953321 L19.8536065,32.3711281 L5.81849616,32.3711281 L1.9198544,25.5110215 C1.46652396,24.699611 1.46652396,23.2888633 1.9198544,22.4866734 Z M15.5016343,46.3956202 C14.5859068,46.3956202 13.3800478,45.6856361 12.9267174,44.8834462 L6.73422364,33.9755079 L20.769334,33.9755079 L27.8231556,46.3956202 L15.5016343,46.3956202 Z M40.0812106,44.8834462 C39.6278802,45.6948566 38.4220212,46.3956202 37.5062937,46.3956202 L29.6546105,46.3956202 L22.5917223,33.9755079 L31.776197,33.9755079 C32.0572619,33.9755079 32.3201935,33.8187581 32.4561926,33.5790232 L37.0257634,25.6216683 L44.0433186,37.885031 L40.0812106,44.8834462 Z M51.079007,25.5018009 L44.9590461,36.2898718 L37.9596241,24.0541709 L45.0134457,11.7815877 L51.0880736,22.4774528 C51.541404,23.2796427 51.541404,24.6903904 51.079007,25.5018009 L51.079007,25.5018009 Z" id="Shape"></path>
                    <path d="M79.3412698,52.6320755 C79.7777778,53.0471698 80,53.6415094 80,54.4339623 C80,54.9622642 79.8968254,55.4150943 79.6904762,55.7924528 C79.484127,56.1698113 79.2063492,56.4433962 78.8571429,56.6226415 C78.5079365,56.8018868 78.1190476,56.8962264 77.6904762,56.8962264 L75.9206349,56.8962264 L75.9206349,59.6886792 C75.9206349,59.7735849 75.8968254,59.8490566 75.8412698,59.9056604 C75.7936508,59.9622642 75.7301587,60 75.6587302,60 L75.2619048,60 C75.1904762,60 75.1269841,59.9716981 75.0793651,59.9056604 C75.031746,59.8490566 75,59.7735849 75,59.6886792 L75,52.3113208 C75,52.2264151 75.0238095,52.1509434 75.0793651,52.0943396 C75.1269841,52.0377358 75.1904762,52 75.2619048,52 L77.6825397,52 C78.3492063,52.009434 78.9047619,52.2169811 79.3412698,52.6320755 Z M77.6349206,55.8679245 C78.1031746,55.8679245 78.4603175,55.745283 78.7063492,55.509434 C78.952381,55.2735849 79.0793651,54.9056604 79.0793651,54.4339623 C79.0793651,53.509434 78.5952381,53.0377358 77.6269841,53.0377358 L75.9047619,53.0377358 L75.9047619,55.8679245 L77.6349206,55.8679245 Z" id="Shape"></path>
                    <path d="M86.8226528,52.4036697 C87.195231,52.6697248 87.4783905,53.0275229 87.6721311,53.4862385 C87.8658718,53.9449541 87.9701937,54.4495413 87.9850969,55.0091743 C88,55.4495413 88,55.7798165 88,56 C88,56.2110092 87.9925484,56.5412844 87.9850969,56.9908257 C87.9701937,57.5504587 87.8584203,58.0642202 87.6646796,58.5137615 C87.4709389,58.9724771 87.1877794,59.3302752 86.8152012,59.5963303 C86.442623,59.8623853 86.0029806,60 85.4962742,60 C84.9821162,60 84.5424739,59.8623853 84.1773472,59.5963303 C83.804769,59.3302752 83.5216095,58.9724771 83.3278689,58.5137615 C83.1341282,58.0550459 83.0223547,57.5504587 83.0074516,56.9908257 C83,56.7706422 83,56.440367 83,56 C83,55.559633 83,55.2385321 83.0074516,55.0091743 C83.0223547,54.4495413 83.1266766,53.9357798 83.3204173,53.4862385 C83.514158,53.0275229 83.7973174,52.6697248 84.1698957,52.4036697 C84.5424739,52.1376147 84.9821162,52 85.4962742,52 C86.0029806,52 86.4500745,52.1376147 86.8226528,52.4036697 Z M84.3338301,53.5229358 C84.0357675,53.8715596 83.8867362,54.3853211 83.8643815,55.0642202 C83.85693,55.2844037 83.85693,55.5963303 83.85693,56 C83.85693,56.4036697 83.85693,56.706422 83.8643815,56.9357798 C83.8792846,57.6146789 84.0357675,58.1284404 84.3338301,58.4770642 C84.6318927,58.8256881 85.0193741,59 85.4962742,59 C85.9806259,59 86.3681073,58.8256881 86.6587183,58.4770642 C86.9567809,58.1284404 87.1058122,57.6146789 87.1281669,56.9357798 C87.14307,56.4954128 87.14307,56.1834862 87.14307,56 C87.14307,55.8165138 87.1356185,55.5137615 87.1281669,55.0642202 C87.1132638,54.3853211 86.9567809,53.8715596 86.6587183,53.5229358 C86.3606557,53.1743119 85.9731744,53 85.4962742,53 C85.0119225,53 84.6244411,53.1743119 84.3338301,53.5229358 Z" id="Shape"></path>
                    <path d="M96.8046512,58.6226415 L97.9488372,52.3113208 C97.9674419,52.2075472 98.0139535,52.1226415 98.0790698,52.0754717 C98.144186,52.0283019 98.2186047,52 98.3023256,52 L98.7488372,52 C98.8139535,52 98.8697674,52.0283019 98.9255814,52.0754717 C98.972093,52.1226415 99,52.1792453 99,52.254717 L98.9906977,52.3490566 L97.6046512,59.4056604 C97.5581395,59.6132075 97.5023256,59.7641509 97.427907,59.8584906 C97.3534884,59.9528302 97.2325581,60 97.055814,60 L96.6093023,60 C96.4418605,60 96.3209302,59.9528302 96.2372093,59.8490566 C96.1534884,59.745283 96.0883721,59.6037736 96.0325581,59.4056604 L95,55.5943396 L93.9674419,59.4056604 C93.9116279,59.5943396 93.8465116,59.745283 93.7627907,59.8490566 C93.6790698,59.9528302 93.5581395,60 93.3906977,60 L92.944186,60 C92.7674419,60 92.6465116,59.9528302 92.572093,59.8584906 C92.4976744,59.7641509 92.4325581,59.6132075 92.3953488,59.4056604 L91.0093023,52.3490566 L91,52.254717 C91,52.1886792 91.027907,52.1320755 91.0744186,52.0754717 C91.1209302,52.0283019 91.1767442,52 91.2511628,52 L91.6976744,52 C91.7813953,52 91.855814,52.0283019 91.9209302,52.0754717 C91.9860465,52.1226415 92.0232558,52.2075472 92.0511628,52.3113208 L93.1953488,58.6226415 L94.4325581,54.1037736 C94.4511628,54.0283019 94.4883721,53.9528302 94.544186,53.8773585 C94.6,53.8018868 94.6930233,53.7735849 94.8139535,53.7735849 L95.1953488,53.7735849 C95.3162791,53.7735849 95.4093023,53.8113208 95.4651163,53.8773585 C95.5209302,53.9528302 95.5581395,54.0283019 95.5767442,54.1037736 L96.8046512,58.6226415 Z" id="Path"></path>
                    <path d="M103.045045,58.9622642 L106.702703,58.9622642 C106.783784,58.9622642 106.855856,58.990566 106.90991,59.0566038 C106.963964,59.1132075 107,59.1886792 107,59.2735849 L107,59.6886792 C107,59.7735849 106.972973,59.8490566 106.90991,59.9056604 C106.855856,59.9622642 106.783784,60 106.702703,60 L102.297297,60 C102.216216,60 102.144144,59.9716981 102.09009,59.9056604 C102.036036,59.8490566 102,59.7735849 102,59.6886792 L102,52.3113208 C102,52.2264151 102.027027,52.1509434 102.09009,52.0943396 C102.144144,52.0377358 102.216216,52 102.297297,52 L106.612613,52 C106.693694,52 106.765766,52.0283019 106.81982,52.0943396 C106.873874,52.1509434 106.90991,52.2264151 106.90991,52.3113208 L106.90991,52.7264151 C106.90991,52.8113208 106.882883,52.8867925 106.81982,52.9433962 C106.765766,53 106.693694,53.0377358 106.612613,53.0377358 L103.036036,53.0377358 L103.036036,55.4433962 L106.369369,55.4433962 C106.45045,55.4433962 106.522523,55.4716981 106.576577,55.5377358 C106.630631,55.5943396 106.666667,55.6698113 106.666667,55.754717 L106.666667,56.1698113 C106.666667,56.254717 106.63964,56.3301887 106.576577,56.3867925 C106.522523,56.4433962 106.45045,56.4811321 106.369369,56.4811321 L103.036036,56.4811321 L103.036036,58.9622642 L103.045045,58.9622642 Z" id="Path"></path>
                    <path d="M116.246032,52.5943396 C116.68254,52.990566 116.896825,53.5754717 116.896825,54.3679245 C116.896825,54.9622642 116.769841,55.4433962 116.52381,55.8207547 C116.277778,56.1981132 115.936508,56.4622642 115.515873,56.6226415 L116.968254,59.6226415 C116.984127,59.6698113 117,59.7075472 117,59.745283 C117,59.8113208 116.97619,59.8773585 116.936508,59.9245283 C116.896825,59.9716981 116.849206,60 116.785714,60 L116.373016,60 C116.190476,60 116.055556,59.8962264 115.960317,59.6886792 L114.571429,56.7830189 L112.920635,56.7830189 L112.920635,59.6886792 C112.920635,59.7735849 112.896825,59.8490566 112.84127,59.9056604 C112.793651,59.9622642 112.730159,60 112.65873,60 L112.261905,60 C112.190476,60 112.126984,59.9716981 112.079365,59.9056604 C112.031746,59.8490566 112,59.7735849 112,59.6886792 L112,52.3113208 C112,52.2264151 112.02381,52.1509434 112.079365,52.0943396 C112.126984,52.0377358 112.190476,52 112.261905,52 L114.587302,52 C115.261905,52 115.809524,52.1981132 116.246032,52.5943396 Z M114.539683,55.745283 C115.507937,55.745283 115.992063,55.2830189 115.992063,54.3679245 C115.992063,53.8962264 115.873016,53.5566038 115.626984,53.3490566 C115.380952,53.1415094 115.02381,53.0377358 114.539683,53.0377358 L112.920635,53.0377358 L112.920635,55.754717 L114.539683,55.754717 L114.539683,55.745283 Z" id="Shape"></path>
                    <path d="M120.086207,59.9056604 C120.034483,59.8490566 120,59.7735849 120,59.6886792 L120,52.3113208 C120,52.2264151 120.025862,52.1509434 120.086207,52.0943396 C120.137931,52.0377358 120.206897,52 120.284483,52 L120.715517,52 C120.793103,52 120.862069,52.0283019 120.913793,52.0943396 C120.965517,52.1509434 121,52.2264151 121,52.3113208 L121,59.6886792 C121,59.7735849 120.974138,59.8490566 120.913793,59.9056604 C120.862069,59.9622642 120.793103,60 120.715517,60 L120.284483,60 C120.206897,59.990566 120.146552,59.9622642 120.086207,59.9056604 Z" id="Path"></path>
                    <path d="M130.194313,59.9057715 C130.139021,59.8492344 130.075829,59.7644287 130.020537,59.6513545 L126.916272,54.0730271 L126.916272,59.6796231 C126.916272,59.7644287 126.892575,59.8398115 126.837283,59.8963486 C126.789889,59.9528857 126.726698,59.9905771 126.655608,59.9905771 L126.260664,59.9905771 C126.189573,59.9905771 126.126382,59.9623086 126.078989,59.8963486 C126.031596,59.8398115 126,59.7644287 126,59.6796231 L126,52.3109541 C126,52.2261484 126.023697,52.1507656 126.078989,52.0942285 C126.126382,52.0376914 126.189573,52 126.260664,52 L126.592417,52 C126.671406,52 126.742496,52.0282686 126.805687,52.0942285 C126.860979,52.1507656 126.924171,52.2355713 126.979463,52.3486455 L130.083728,57.9269729 L130.083728,52.3203769 C130.083728,52.2355713 130.107425,52.1601885 130.162717,52.1036514 C130.210111,52.0471143 130.273302,52.0094229 130.344392,52.0094229 L130.739336,52.0094229 C130.810427,52.0094229 130.873618,52.0376914 130.921011,52.1036514 C130.968404,52.1601885 131,52.2355713 131,52.3203769 L131,59.6890459 C131,59.7738516 130.976303,59.8492344 130.921011,59.9057715 C130.873618,59.9623086 130.810427,60 130.739336,60 L130.407583,60 C130.320695,59.9905771 130.249605,59.9623086 130.194313,59.9057715 Z" id="Path"></path>
                    <path d="M139.313131,52.3678161 C139.818182,52.5977011 140.20202,52.8827586 140.464646,53.2229885 C140.727273,53.5632184 140.868687,53.8758621 140.888889,54.1609195 C140.89899,54.2252874 140.868687,54.2896552 140.818182,54.3356322 C140.757576,54.3816092 140.69697,54.4091954 140.626263,54.4091954 L140.121212,54.4091954 C139.929293,54.4091954 139.818182,54.3724138 139.767677,54.2896552 C139.535354,53.8758621 139.252525,53.5632184 138.919192,53.3425287 C138.585859,53.1310345 138.121212,53.0206897 137.515152,53.0206897 C136.828283,53.0206897 136.272727,53.1954023 135.848485,53.5448276 C135.424242,53.8942529 135.20202,54.4 135.171717,55.062069 C135.161616,55.2827586 135.161616,55.5954023 135.161616,55.9816092 C135.161616,56.3770115 135.161616,56.6804598 135.171717,56.9011494 C135.191919,57.6 135.414141,58.1241379 135.838384,58.4827586 C136.262626,58.8413793 136.818182,59.016092 137.505051,59.016092 C138.212121,59.016092 138.777778,58.8505747 139.20202,58.5103448 C139.626263,58.1701149 139.838384,57.6367816 139.838384,56.9103448 L139.838384,56.5977011 L138.080808,56.5977011 C137.989899,56.5977011 137.909091,56.5701149 137.848485,56.5057471 C137.787879,56.4505747 137.747475,56.3770115 137.747475,56.2942529 L137.747475,55.8896552 C137.747475,55.8068966 137.777778,55.7333333 137.848485,55.6781609 C137.909091,55.6229885 137.989899,55.5862069 138.080808,55.5862069 L140.666667,55.5862069 C140.757576,55.5862069 140.838384,55.6137931 140.89899,55.6781609 C140.959596,55.7333333 141,55.8068966 141,55.8896552 L141,56.9471264 C141,57.5448276 140.858586,58.0689655 140.585859,58.5287356 C140.313131,58.9885057 139.909091,59.3563218 139.383838,59.6137931 C138.858586,59.8712644 138.232323,60 137.505051,60 C136.383838,60 135.525253,59.7149425 134.939394,59.1448276 C134.353535,58.5747126 134.040404,57.8390805 134.010101,56.937931 C134,56.7172414 134,56.3862069 134,55.9632184 C134,55.5310345 134,55.2091954 134.010101,54.9885057 C134.030303,54.4183908 134.171717,53.9034483 134.434343,53.462069 C134.686869,53.0114943 135.080808,52.6528736 135.59596,52.3954023 C136.111111,52.1287356 136.747475,52 137.505051,52 C138.20202,52.0183908 138.808081,52.137931 139.313131,52.3678161 Z" id="Path"></path>
                    <path d="M150.970297,59.9056604 C150.910891,59.9622642 150.831683,60 150.742574,60 L150.247525,60 C150.158416,60 150.079208,59.9716981 150.019802,59.9056604 C149.960396,59.8490566 149.920792,59.7735849 149.920792,59.6886792 L149.920792,57.0188679 L147.059406,52.4150943 C147.019802,52.3490566 147,52.2924528 147,52.254717 C147,52.1886792 147.029703,52.1320755 147.079208,52.0754717 C147.128713,52.0283019 147.188119,52 147.267327,52 L147.782178,52 C147.930693,52 148.029703,52.0283019 148.09901,52.0754717 C148.168317,52.1226415 148.227723,52.1981132 148.287129,52.2830189 L150.49505,55.9150943 L152.712871,52.2830189 C152.772277,52.1886792 152.831683,52.1226415 152.90099,52.0754717 C152.970297,52.0283019 153.079208,52 153.217822,52 L153.732673,52 C153.80198,52 153.861386,52.0283019 153.920792,52.0754717 C153.970297,52.1226415 154,52.1792453 154,52.254717 C154,52.2924528 153.980198,52.3490566 153.940594,52.4150943 L151.079208,57.0188679 L151.079208,59.6886792 C151.059406,59.7641509 151.029703,59.8396226 150.970297,59.9056604 Z" id="Path"></path>
                    <path d="M160.822653,52.4036697 C161.195231,52.6697248 161.47839,53.0275229 161.672131,53.4862385 C161.865872,53.9449541 161.970194,54.4495413 161.985097,55.0091743 C162,55.4495413 162,55.7798165 162,56 C162,56.2110092 161.992548,56.5412844 161.985097,56.9908257 C161.970194,57.5504587 161.85842,58.0642202 161.66468,58.5137615 C161.470939,58.9724771 161.187779,59.3302752 160.815201,59.5963303 C160.442623,59.8623853 160.002981,60 159.496274,60 C158.982116,60 158.542474,59.8623853 158.177347,59.5963303 C157.804769,59.3302752 157.52161,58.9724771 157.327869,58.5137615 C157.134128,58.0550459 157.022355,57.5504587 157.007452,56.9908257 C157,56.7706422 157,56.440367 157,56 C157,55.559633 157,55.2385321 157.007452,55.0091743 C157.022355,54.4495413 157.126677,53.9357798 157.320417,53.4862385 C157.514158,53.0275229 157.797317,52.6697248 158.169896,52.4036697 C158.542474,52.1376147 158.982116,52 159.496274,52 C160.010432,52 160.450075,52.1376147 160.822653,52.4036697 Z M158.33383,53.5229358 C158.035768,53.8715596 157.886736,54.3853211 157.864382,55.0642202 C157.85693,55.2844037 157.85693,55.5963303 157.85693,56 C157.85693,56.4036697 157.85693,56.706422 157.864382,56.9357798 C157.879285,57.6146789 158.035768,58.1284404 158.33383,58.4770642 C158.631893,58.8256881 159.019374,59 159.496274,59 C159.980626,59 160.368107,58.8256881 160.658718,58.4770642 C160.956781,58.1284404 161.105812,57.6146789 161.128167,56.9357798 C161.14307,56.4954128 161.14307,56.1834862 161.14307,56 C161.14307,55.8165138 161.135618,55.5137615 161.128167,55.0642202 C161.113264,54.3853211 160.956781,53.8715596 160.658718,53.5229358 C160.360656,53.1743119 159.973174,53 159.496274,53 C159.019374,53 158.631893,53.1743119 158.33383,53.5229358 Z" id="Shape"></path>
                    <path d="M169.923077,52.0930233 C169.969231,52.1488372 170,52.2232558 170,52.3069767 L170,56.8093023 C170,57.7860465 169.792308,58.5581395 169.384615,59.1348837 C168.969231,59.7116279 168.346154,60 167.5,60 C166.646154,60 166.015385,59.7116279 165.607692,59.1348837 C165.2,58.5581395 165,57.7860465 165,56.8093023 L165,52.3069767 C165,52.2232558 165.023077,52.1488372 165.076923,52.0930233 C165.123077,52.0372093 165.184615,52 165.253846,52 L165.638462,52 C165.707692,52 165.769231,52.027907 165.815385,52.0930233 C165.861538,52.1488372 165.892308,52.2232558 165.892308,52.3069767 L165.892308,56.8651163 C165.892308,57.5813953 166.030769,58.1302326 166.315385,58.4930233 C166.6,58.855814 167,59.0418605 167.507692,59.0418605 C168.023077,59.0418605 168.423077,58.855814 168.707692,58.4930233 C168.992308,58.1302326 169.138462,57.5906977 169.138462,56.8651163 L169.138462,52.3069767 C169.138462,52.2232558 169.161538,52.1488372 169.215385,52.0930233 C169.261538,52.0372093 169.323077,52 169.392308,52 L169.761538,52 C169.815385,52 169.876923,52.0372093 169.923077,52.0930233 Z" id="Path"></path>
                    <path d="M179.246032,52.5943396 C179.68254,52.990566 179.896825,53.5754717 179.896825,54.3679245 C179.896825,54.9622642 179.769841,55.4433962 179.52381,55.8207547 C179.277778,56.1981132 178.936508,56.4622642 178.515873,56.6226415 L179.968254,59.6226415 C179.984127,59.6698113 180,59.7075472 180,59.745283 C180,59.8113208 179.97619,59.8773585 179.936508,59.9245283 C179.896825,59.9716981 179.84127,60 179.785714,60 L179.373016,60 C179.190476,60 179.055556,59.8962264 178.960317,59.6886792 L177.571429,56.7830189 L175.920635,56.7830189 L175.920635,59.6886792 C175.920635,59.7735849 175.896825,59.8490566 175.84127,59.9056604 C175.793651,59.9622642 175.730159,60 175.65873,60 L175.261905,60 C175.190476,60 175.126984,59.9716981 175.079365,59.9056604 C175.031746,59.8490566 175,59.7735849 175,59.6886792 L175,52.3113208 C175,52.2264151 175.02381,52.1509434 175.079365,52.0943396 C175.126984,52.0377358 175.190476,52 175.261905,52 L177.587302,52 C178.253968,52 178.809524,52.1981132 179.246032,52.5943396 Z M177.539683,55.745283 C178.507937,55.745283 178.992063,55.2830189 178.992063,54.3679245 C178.992063,53.8962264 178.873016,53.5566038 178.626984,53.3490566 C178.380952,53.1415094 178.02381,53.0377358 177.539683,53.0377358 L175.920635,53.0377358 L175.920635,55.754717 L177.539683,55.754717 L177.539683,55.745283 Z" id="Shape"></path>
                    <path d="M192.650456,58.5566038 C192.430091,59.0283019 192.12614,59.3867925 191.738602,59.6320755 C191.351064,59.8773585 190.910334,60 190.408815,60 L188.25076,60 C188.182371,60 188.121581,59.9716981 188.075988,59.9056604 C188.030395,59.8490566 188,59.7735849 188,59.6886792 L188,52.3113208 C188,52.2264151 188.022796,52.1509434 188.075988,52.0943396 C188.121581,52.0377358 188.182371,52 188.25076,52 L190.355623,52 C190.864742,52 191.31307,52.1226415 191.708207,52.3679245 C192.103343,52.6132075 192.414894,52.9716981 192.642857,53.4433962 C192.870821,53.9150943 192.984802,54.4622642 192.992401,55.0943396 C193,55.3207547 193,55.6226415 193,56 C193,56.3773585 193,56.6698113 192.992401,56.9056604 C192.984802,57.5377358 192.870821,58.0943396 192.650456,58.5566038 Z M188.87386,53.0377358 L188.87386,58.9716981 L190.363222,58.9716981 C190.978723,58.9716981 191.419453,58.7735849 191.693009,58.3773585 C191.966565,57.9811321 192.110942,57.4716981 192.118541,56.8490566 C192.12614,56.6226415 192.12614,56.3396226 192.12614,56 C192.12614,55.6698113 192.12614,55.3867925 192.118541,55.1509434 C192.103343,54.5377358 191.958967,54.0283019 191.670213,53.6226415 C191.381459,53.2264151 190.933131,53.0188679 190.317629,53.0188679 L188.87386,53.0188679 L188.87386,53.0377358 Z" id="Shape"></path>
                    <path d="M197.629156,58.1959858 L197.065217,59.716647 C197.002558,59.905549 196.859335,60 196.644501,60 L196.241688,60 C196.179028,60 196.116368,59.9716647 196.071611,59.9244392 C196.026854,59.8772137 196,59.8205431 196,59.7449823 C196,59.7072019 196.017903,59.6505313 196.044757,59.5844156 L198.694373,52.377804 C198.783887,52.1227863 198.953964,52 199.177749,52 L199.831202,52 C200.063939,52 200.225064,52.1227863 200.314578,52.377804 L202.955243,59.5844156 C202.982097,59.6505313 203,59.7072019 203,59.7449823 C203,59.811098 202.973146,59.8772137 202.928389,59.9244392 C202.883632,59.9716647 202.829923,60 202.758312,60 L202.355499,60 C202.140665,60 201.997442,59.905549 201.934783,59.716647 L201.370844,58.1959858 L197.629156,58.1959858 Z M201.012788,57.1664699 L199.517903,53.0861865 L198.014066,57.1664699 L201.012788,57.1664699 Z" id="Shape"></path>
                    <path d="M209.921136,52.0943396 C209.968454,52.1509434 210,52.2264151 210,52.3113208 L210,52.7264151 C210,52.8113208 209.976341,52.8867925 209.921136,52.9433962 C209.873817,53 209.810726,53.0377358 209.739748,53.0377358 L207.957413,53.0377358 L207.957413,59.6886792 C207.957413,59.7735849 207.933754,59.8490566 207.878549,59.9056604 C207.83123,59.9622642 207.768139,60 207.697161,60 L207.302839,60 C207.231861,60 207.16877,59.9716981 207.121451,59.9056604 C207.074132,59.8490566 207.042587,59.7735849 207.042587,59.6886792 L207.042587,53.0377358 L205.260252,53.0377358 C205.189274,53.0377358 205.126183,53.009434 205.078864,52.9433962 C205.031546,52.8867925 205,52.8113208 205,52.7264151 L205,52.3113208 C205,52.2264151 205.023659,52.1509434 205.078864,52.0943396 C205.126183,52.0377358 205.189274,52 205.260252,52 L209.731861,52 C209.802839,52 209.865931,52.0377358 209.921136,52.0943396 Z" id="Path"></path>
                    <path d="M214.629156,58.1959858 L214.065217,59.716647 C214.002558,59.905549 213.859335,60 213.644501,60 L213.241688,60 C213.179028,60 213.116368,59.9716647 213.071611,59.9244392 C213.026854,59.8772137 213,59.8205431 213,59.7449823 C213,59.7072019 213.017903,59.6505313 213.044757,59.5844156 L215.694373,52.377804 C215.783887,52.1227863 215.953964,52 216.177749,52 L216.831202,52 C217.063939,52 217.225064,52.1227863 217.314578,52.377804 L219.955243,59.5844156 C219.982097,59.6505313 220,59.7072019 220,59.7449823 C220,59.811098 219.973146,59.8772137 219.928389,59.9244392 C219.883632,59.9716647 219.829923,60 219.758312,60 L219.355499,60 C219.140665,60 218.997442,59.905549 218.934783,59.716647 L218.370844,58.1959858 L214.629156,58.1959858 Z M218.012788,57.1664699 L216.517903,53.0861865 L215.014066,57.1664699 L218.012788,57.1664699 Z" id="Shape"></path>
                    <path d="M231.350962,59.217695 C230.918269,59.7392317 230.301282,60 229.508013,60 C229.003205,60 228.5625,59.8882421 228.185897,59.6647264 C227.809295,59.4412107 227.520833,59.1431898 227.320513,58.7706636 C227.120192,58.3981374 227.016026,57.9976717 227,57.5692666 C227,57.5040745 227.024038,57.4481956 227.064103,57.3923166 C227.104167,57.3457509 227.152244,57.3178114 227.216346,57.3178114 L227.713141,57.3178114 C227.825321,57.3178114 227.897436,57.4016298 227.929487,57.5692666 C228.001603,57.9883586 228.161859,58.3329453 228.418269,58.5937136 C228.674679,58.854482 229.035256,58.9848661 229.508013,58.9848661 C230.060897,58.9848661 230.453526,58.8172293 230.701923,58.4819558 C230.950321,58.1466822 231.078526,57.653085 231.078526,57.0104773 L231.078526,53.024447 L227.729167,53.024447 C227.657051,53.024447 227.592949,52.9965076 227.544872,52.9313155 C227.496795,52.8754366 227.464744,52.8009313 227.464744,52.7171129 L227.464744,52.3073341 C227.464744,52.2235157 227.488782,52.1490105 227.544872,52.0931315 C227.592949,52.0372526 227.657051,52 227.729167,52 L231.735577,52 C231.807692,52 231.871795,52.0279395 231.919872,52.0931315 C231.967949,52.1490105 232,52.2235157 232,52.3073341 L232,57.1315483 C232,57.9976717 231.783654,58.6961583 231.350962,59.217695 Z" id="Path"></path>
                    <path d="M238.822653,52.4036697 C239.195231,52.6697248 239.47839,53.0275229 239.672131,53.4862385 C239.865872,53.9449541 239.970194,54.4495413 239.985097,55.0091743 C240,55.4495413 240,55.7798165 240,56 C240,56.2110092 239.992548,56.5412844 239.985097,56.9908257 C239.970194,57.5504587 239.85842,58.0642202 239.66468,58.5137615 C239.470939,58.9724771 239.187779,59.3302752 238.815201,59.5963303 C238.442623,59.8623853 238.002981,60 237.496274,60 C236.982116,60 236.542474,59.8623853 236.177347,59.5963303 C235.804769,59.3302752 235.52161,58.9724771 235.327869,58.5137615 C235.134128,58.0550459 235.022355,57.5504587 235.007452,56.9908257 C235,56.7706422 235,56.440367 235,56 C235,55.559633 235,55.2385321 235.007452,55.0091743 C235.022355,54.4495413 235.126677,53.9357798 235.320417,53.4862385 C235.514158,53.0275229 235.797317,52.6697248 236.169896,52.4036697 C236.542474,52.1376147 236.982116,52 237.496274,52 C238.010432,52 238.450075,52.1376147 238.822653,52.4036697 Z M236.33383,53.5229358 C236.035768,53.8715596 235.886736,54.3853211 235.864382,55.0642202 C235.85693,55.2844037 235.85693,55.5963303 235.85693,56 C235.85693,56.4036697 235.85693,56.706422 235.864382,56.9357798 C235.879285,57.6146789 236.035768,58.1284404 236.33383,58.4770642 C236.631893,58.8256881 237.019374,59 237.496274,59 C237.980626,59 238.368107,58.8256881 238.658718,58.4770642 C238.956781,58.1284404 239.105812,57.6146789 239.128167,56.9357798 C239.14307,56.4954128 239.14307,56.1834862 239.14307,56 C239.14307,55.8165138 239.135618,55.5137615 239.128167,55.0642202 C239.113264,54.3853211 238.956781,53.8715596 238.658718,53.5229358 C238.360656,53.1743119 237.973174,53 237.496274,53 C237.019374,53 236.631893,53.1743119 236.33383,53.5229358 Z" id="Shape"></path>
                    <path d="M248.923077,52.0930233 C248.969231,52.1488372 249,52.2232558 249,52.3069767 L249,56.8093023 C249,57.7860465 248.792308,58.5581395 248.384615,59.1348837 C247.969231,59.7116279 247.346154,60 246.5,60 C245.646154,60 245.015385,59.7116279 244.607692,59.1348837 C244.2,58.5581395 244,57.7860465 244,56.8093023 L244,52.3069767 C244,52.2232558 244.023077,52.1488372 244.076923,52.0930233 C244.123077,52.0372093 244.184615,52 244.253846,52 L244.638462,52 C244.707692,52 244.769231,52.027907 244.815385,52.0930233 C244.861538,52.1488372 244.892308,52.2232558 244.892308,52.3069767 L244.892308,56.8651163 C244.892308,57.5813953 245.030769,58.1302326 245.315385,58.4930233 C245.6,58.855814 245.992308,59.0418605 246.507692,59.0418605 C247.023077,59.0418605 247.423077,58.855814 247.707692,58.4930233 C247.992308,58.1302326 248.138462,57.5906977 248.138462,56.8651163 L248.138462,52.3069767 C248.138462,52.2232558 248.161538,52.1488372 248.215385,52.0930233 C248.261538,52.0372093 248.323077,52 248.392308,52 L248.761538,52 C248.807692,52 248.869231,52.0372093 248.923077,52.0930233 Z" id="Path"></path>
                    <path d="M258.246032,52.5943396 C258.68254,52.990566 258.896825,53.5754717 258.896825,54.3679245 C258.896825,54.9622642 258.769841,55.4433962 258.52381,55.8207547 C258.277778,56.1981132 257.936508,56.4622642 257.515873,56.6226415 L258.968254,59.6226415 C258.984127,59.6698113 259,59.7075472 259,59.745283 C259,59.8113208 258.97619,59.8773585 258.936508,59.9245283 C258.896825,59.9716981 258.84127,60 258.785714,60 L258.373016,60 C258.190476,60 258.055556,59.8962264 257.960317,59.6886792 L256.571429,56.7830189 L254.920635,56.7830189 L254.920635,59.6886792 C254.920635,59.7735849 254.896825,59.8490566 254.84127,59.9056604 C254.793651,59.9622642 254.730159,60 254.65873,60 L254.261905,60 C254.190476,60 254.126984,59.9716981 254.079365,59.9056604 C254.031746,59.8490566 254,59.7735849 254,59.6886792 L254,52.3113208 C254,52.2264151 254.02381,52.1509434 254.079365,52.0943396 C254.126984,52.0377358 254.190476,52 254.261905,52 L256.587302,52 C257.261905,52 257.81746,52.1981132 258.246032,52.5943396 Z M256.539683,55.745283 C257.507937,55.745283 257.992063,55.2830189 257.992063,54.3679245 C257.992063,53.8962264 257.873016,53.5566038 257.626984,53.3490566 C257.380952,53.1415094 257.02381,53.0377358 256.539683,53.0377358 L254.920635,53.0377358 L254.920635,55.754717 L256.539683,55.754717 L256.539683,55.745283 Z" id="Shape"></path>
                    <path d="M267.194313,59.9057715 C267.139021,59.8492344 267.075829,59.7644287 267.020537,59.6513545 L263.916272,54.0730271 L263.916272,59.6796231 C263.916272,59.7644287 263.892575,59.8398115 263.837283,59.8963486 C263.789889,59.9528857 263.726698,59.9905771 263.655608,59.9905771 L263.260664,59.9905771 C263.189573,59.9905771 263.126382,59.9623086 263.078989,59.8963486 C263.031596,59.8398115 263,59.7644287 263,59.6796231 L263,52.3109541 C263,52.2261484 263.023697,52.1507656 263.078989,52.0942285 C263.126382,52.0376914 263.189573,52 263.260664,52 L263.592417,52 C263.671406,52 263.742496,52.0282686 263.805687,52.0942285 C263.860979,52.1507656 263.924171,52.2355713 263.979463,52.3486455 L267.083728,57.9269729 L267.083728,52.3203769 C267.083728,52.2355713 267.107425,52.1601885 267.162717,52.1036514 C267.210111,52.0471143 267.273302,52.0094229 267.344392,52.0094229 L267.739336,52.0094229 C267.810427,52.0094229 267.873618,52.0376914 267.921011,52.1036514 C267.968404,52.1601885 268,52.2355713 268,52.3203769 L268,59.6890459 C268,59.7738516 267.976303,59.8492344 267.921011,59.9057715 C267.873618,59.9623086 267.810427,60 267.739336,60 L267.407583,60 C267.320695,59.9905771 267.249605,59.9623086 267.194313,59.9057715 Z" id="Path"></path>
                    <path d="M273.036036,58.9622642 L276.702703,58.9622642 C276.783784,58.9622642 276.855856,58.990566 276.90991,59.0566038 C276.963964,59.1132075 277,59.1886792 277,59.2735849 L277,59.6886792 C277,59.7735849 276.972973,59.8490566 276.90991,59.9056604 C276.855856,59.9622642 276.783784,60 276.702703,60 L272.297297,60 C272.216216,60 272.144144,59.9716981 272.09009,59.9056604 C272.036036,59.8490566 272,59.7735849 272,59.6886792 L272,52.3113208 C272,52.2264151 272.027027,52.1509434 272.09009,52.0943396 C272.144144,52.0377358 272.216216,52 272.297297,52 L276.612613,52 C276.693694,52 276.765766,52.0283019 276.81982,52.0943396 C276.873874,52.1509434 276.90991,52.2264151 276.90991,52.3113208 L276.90991,52.7264151 C276.90991,52.8113208 276.882883,52.8867925 276.81982,52.9433962 C276.765766,53 276.693694,53.0377358 276.612613,53.0377358 L273.036036,53.0377358 L273.036036,55.4433962 L276.369369,55.4433962 C276.45045,55.4433962 276.522523,55.4716981 276.576577,55.5377358 C276.630631,55.5943396 276.666667,55.6698113 276.666667,55.754717 L276.666667,56.1698113 C276.666667,56.254717 276.63964,56.3301887 276.576577,56.3867925 C276.522523,56.4433962 276.45045,56.4811321 276.369369,56.4811321 L273.036036,56.4811321 L273.036036,58.9622642 Z" id="Path"></path>
                    <path d="M282.970297,59.9056604 C282.910891,59.9622642 282.831683,60 282.742574,60 L282.247525,60 C282.158416,60 282.079208,59.9716981 282.019802,59.9056604 C281.960396,59.8490566 281.920792,59.7735849 281.920792,59.6886792 L281.920792,57.0188679 L279.059406,52.4150943 C279.019802,52.3490566 279,52.2924528 279,52.254717 C279,52.1886792 279.029703,52.1320755 279.079208,52.0754717 C279.128713,52.0283019 279.188119,52 279.267327,52 L279.782178,52 C279.930693,52 280.029703,52.0283019 280.09901,52.0754717 C280.168317,52.1226415 280.227723,52.1981132 280.287129,52.2830189 L282.49505,55.9150943 L284.712871,52.2830189 C284.772277,52.1886792 284.831683,52.1226415 284.90099,52.0754717 C284.970297,52.0283019 285.079208,52 285.217822,52 L285.732673,52 C285.80198,52 285.861386,52.0283019 285.920792,52.0754717 C285.970297,52.1226415 286,52.1792453 286,52.254717 C286,52.2924528 285.980198,52.3490566 285.940594,52.4150943 L283.079208,57.0188679 L283.079208,59.6886792 C283.069307,59.7641509 283.039604,59.8396226 282.970297,59.9056604 Z" id="Path"></path>
                </g>
            </g>
        </g>
    </g>
</svg>